<?xml version="1.0" encoding="utf-8"?>
<!-- Generator: Adobe Illustrator 19.0.0, SVG Export Plug-In . SVG Version: 6.00 Build 0)  -->
<svg xmlns="http://www.w3.org/2000/svg" xmlns:xlink="http://www.w3.org/1999/xlink" version="1.1" id="Layer_1" x="0px" y="0px" viewBox="0 2 98 98" style="enable-background:new 0 2 98 98;" xml:space="preserve" width="512" height="512">
<style type="text/css">
	.st0{fill:url(#SVGID_1_);}
</style>
<linearGradient id="SVGID_1_" gradientUnits="userSpaceOnUse" x1="49" y1="14.0999" x2="49" y2="87.9001">
	<stop offset="0" style="stop-color:#00EFD1"/>
	<stop offset="1" style="stop-color:#00ACEA"/>
</linearGradient>
<path class="st0" d="M49,14.1c-19.9,0-36,16.1-36,36v21.3c0,1.7,1.3,3,3,3h6.6v10.4c0,1.6,1.3,3,3,3l10.9,0.1c0,0,0,0,0,0  c0.8,0,1.5-0.3,2.1-0.9c0.6-0.6,0.9-1.3,0.9-2.1v-26c0-1.7-1.3-3-3-3H25.6c-1.7,0-3,1.3-3,3v9.5H19V50.1c0-16.5,13.5-30,30-30  s30,13.5,30,30v18.3h-3.5v-9.5c0-1.7-1.3-3-3-3h-11c-1.7,0-3,1.3-3,3v25.9c0,1.7,1.3,3,3,3h11c1.7,0,3-1.3,3-3V74.4H82  c1.7,0,3-1.3,3-3V50.1C85,30.2,68.9,14.1,49,14.1z M28.6,61.9h4.9v20l-4.9,0V61.9z M69.5,81.8h-5V61.9h5V81.8z"/>

</svg>
