<svg id="Layer_3" enable-background="new 0 0 64 64" height="512" viewBox="0 0 64 64" width="512" xmlns="http://www.w3.org/2000/svg"><path d="m50 13-10 5v-10z" fill="#f4b2b0"/><g fill="#b3404a"><path d="m11 57h18c.552 0 1-.448 1-1v-4c0-3.401-2.44-6.241-5.66-6.868.576-.605 1.025-1.329 1.31-2.132h1.35c1.654 0 3-1.346 3-3 0-1.302-.839-2.402-2-2.816v-3.184c0-2.757-2.243-5-5-5h-6c-2.757 0-5 2.243-5 5v3.184c-1.161.414-2 1.514-2 2.816 0 1.654 1.346 3 3 3h1.35c.285.803.734 1.527 1.31 2.132-3.22.627-5.66 3.467-5.66 6.868v4c0 .552.448 1 1 1zm9-10h3l-1.108 1.478-1.185-1.185c-.195-.195-.451-.293-.707-.293s-.512.098-.707.293l-1.185 1.185-1.108-1.478zm-4-6v-2h1c1.612 0 4.21-.876 5.747-2.374.329.531.755.996 1.253 1.37v3.004c0 2.206-1.794 4-4 4s-4-1.794-4-4zm11 0h-1v-2h1c.551 0 1 .449 1 1s-.449 1-1 1zm-13-7c0-1.654 1.346-3 3-3h6c1.654 0 3 1.346 3 3v2.829c-1.164-.413-2-1.525-2-2.829 0-.552-.448-1-1-1s-1 .448-1 1c0 1.391-3.026 3-5 3h-3zm-1 7c-.551 0-1-.449-1-1s.449-1 1-1h1v2zm-1 11c0-1.993 1.18-3.703 2.871-4.506l2.329 3.106c.174.232.44.377.729.397.287.018.573-.085.778-.291l1.293-1.292 1.293 1.293c.188.189.443.293.707.293.023 0 .047-.001.071-.002.289-.021.555-.166.729-.397l2.329-3.106c1.691.802 2.871 2.512 2.871 4.505v3h-2v-4h-2v4h-8v-4h-2v4h-2z"/><path d="m20 63c10.477 0 19-8.523 19-19s-8.523-19-19-19-19 8.523-19 19 8.523 19 19 19zm0-36c9.374 0 17 7.626 17 17s-7.626 17-17 17-17-7.626-17-17 7.626-17 17-17z"/><path d="m60 1h-32c-1.654 0-3 1.346-3 3v19c0 1.654 1.346 3 3 3h13v2h-4v2h14v-2h-4v-2h13c1.654 0 3-1.346 3-3v-19c0-1.654-1.346-3-3-3zm-15 27h-2v-2h2zm16-5c0 .551-.449 1-1 1h-32c-.551 0-1-.449-1-1v-19c0-.551.449-1 1-1h32c.551 0 1 .449 1 1z"/><path d="m50.447 12.105-10-5c-.31-.154-.678-.138-.973.044-.294.183-.474.504-.474.851v10c0 .347.18.668.474.851.161.099.343.149.526.149.153 0 .306-.035.447-.105l10-5c.339-.17.553-.516.553-.895s-.214-.725-.553-.895zm-9.447 4.277v-6.764l6.764 3.382z"/><path d="m51 20h8v2h-8z"/><path d="m51 16h8v2h-8z"/><path d="m41 45c0 1.654 1.346 3 3 3s3-1.346 3-3-1.346-3-3-3-3 1.346-3 3zm4 0c0 .551-.449 1-1 1s-1-.449-1-1 .449-1 1-1 1 .449 1 1z"/><path d="m51 32c-2.757 0-5 2.243-5 5s2.243 5 5 5 5-2.243 5-5-2.243-5-5-5zm0 8c-1.654 0-3-1.346-3-3s1.346-3 3-3 3 1.346 3 3-1.346 3-3 3z"/></g></svg>